<?xml version="1.0" standalone="no"?>
<!DOCTYPE svg PUBLIC "-//W3C//DTD SVG 20010904//EN"
 "http://www.w3.org/TR/2001/REC-SVG-20010904/DTD/svg10.dtd">
<svg version="1.0" xmlns="http://www.w3.org/2000/svg"
 width="128.000000pt" height="128.000000pt" viewBox="0 0 128.000000 128.000000"
 preserveAspectRatio="xMidYMid meet">

<g transform="translate(0.000000,128.000000) scale(0.100000,-0.100000)"
fill="#000000" stroke="none">
<path d="M240 1260 l-165 -5 110 -7 c62 -4 143 -2 185 4 41 5 87 7 102 4 15
-3 29 -2 32 3 6 9 -30 9 -264 1z"/>
<path d="M774 1259 c-2 -4 38 -8 89 -10 144 -5 177 -4 258 5 73 8 77 7 105
-18 16 -14 23 -26 17 -26 -10 0 -14 -50 -15 -207 l-3 -208 -2 199 c-2 128 -7
204 -15 213 -8 11 -7 12 6 7 9 -3 16 -2 16 4 0 5 -6 12 -12 14 -21 7 -448 1
-455 -6 -3 -3 -13 -6 -22 -6 -11 0 -10 3 5 15 10 8 13 15 7 15 -15 0 -48 -48
-39 -57 3 -3 6 -1 6 6 0 9 8 11 26 7 17 -5 23 -3 19 4 -8 12 -20 11 200 10 99
-1 184 -5 190 -11 5 -5 20 -9 33 -9 l24 0 -3 -228 c-2 -243 4 -289 36 -248 8
11 15 24 15 30 0 5 -6 2 -13 -9 -16 -20 -37 -13 -37 14 0 26 21 43 37 30 9 -8
13 -8 13 0 0 6 -4 11 -10 11 -6 0 -10 73 -10 200 0 173 2 200 15 200 22 0 2
35 -28 52 -23 13 -445 19 -453 7z"/>
<path d="M520 1251 c0 -6 -8 -11 -17 -12 -10 0 -13 -3 -6 -5 18 -8 49 11 34
20 -6 4 -11 2 -11 -3z"/>
<path d="M40 1243 c-1 -5 0 -108 0 -230 0 -123 -3 -223 -7 -223 -4 0 -7 97 -5
216 2 147 -1 214 -8 209 -6 -4 -10 -86 -10 -230 0 -218 1 -225 22 -250 25 -29
70 -41 96 -26 13 7 7 9 -21 7 -36 -3 -38 -2 -33 20 5 18 2 24 -9 24 -14 0 -15
30 -15 240 1 132 4 240 8 240 4 0 6 -103 4 -230 -2 -126 0 -230 5 -230 4 0 7
94 5 210 l-3 210 48 2 48 1 -45 8 c-25 4 60 6 190 4 208 -4 236 -6 247 -22 16
-21 17 -9 2 18 -8 16 -17 19 -39 14 -15 -3 -31 -2 -34 3 -3 5 -91 7 -204 4
-142 -3 -201 -1 -206 7 -8 12 -36 15 -36 4z m14 -505 c-3 -5 -12 -1 -20 9 -20
27 -17 39 6 18 11 -10 17 -22 14 -27z"/>
<path d="M785 1210 c3 -5 8 -10 11 -10 2 0 4 5 4 10 0 6 -5 10 -11 10 -5 0 -7
-4 -4 -10z"/>
<path d="M258 1203 c12 -2 32 -2 45 0 12 2 2 4 -23 4 -25 0 -35 -2 -22 -4z"/>
<path d="M978 1203 c12 -2 32 -2 45 0 12 2 2 4 -23 4 -25 0 -35 -2 -22 -4z"/>
<path d="M711 1154 c0 -11 3 -14 6 -6 3 7 2 16 -1 19 -3 4 -6 -2 -5 -13z"/>
<path d="M160 1107 c0 -13 7 -17 30 -15 32 2 39 12 16 21 -8 3 -17 1 -20 -6
-3 -9 -8 -8 -15 3 -9 13 -11 13 -11 -3z"/>
<path d="M253 1113 c15 -2 37 -2 50 0 12 2 0 4 -28 4 -27 0 -38 -2 -22 -4z"/>
<path d="M754 1108 c12 -7 21 -7 28 0 6 6 0 10 -18 10 -23 0 -24 -2 -10 -10z"/>
<path d="M965 1115 c23 -8 85 -10 85 -3 0 4 -21 8 -47 7 -27 0 -43 -2 -38 -4z"/>
<path d="M1070 1110 c-8 -5 -12 -10 -7 -11 4 -1 12 -3 17 -4 6 -1 15 -3 21 -4
6 0 9 -8 5 -16 -3 -8 -1 -15 4 -15 18 0 11 40 -7 41 -15 0 -15 2 2 9 l20 9
-20 0 c-11 0 -27 -4 -35 -9z"/>
<path d="M418 1093 c12 -2 32 -2 45 0 12 2 2 4 -23 4 -25 0 -35 -2 -22 -4z"/>
<path d="M813 1093 c15 -2 37 -2 50 0 12 2 0 4 -28 4 -27 0 -38 -2 -22 -4z"/>
<path d="M160 1070 c0 -5 5 -10 11 -10 5 0 7 5 4 10 -3 6 -8 10 -11 10 -2 0
-4 -4 -4 -10z"/>
<path d="M164 867 c1 -64 4 -91 10 -78 5 12 4 53 -1 98 l-10 78 1 -98z"/>
<path d="M1103 840 c0 -25 2 -35 4 -22 2 12 2 32 0 45 -2 12 -4 2 -4 -23z"/>
<path d="M1107 777 c-3 -8 -2 -20 3 -26 5 -9 8 -4 8 13 0 29 -3 32 -11 13z"/>
<path d="M1225 760 c-3 -5 -1 -10 4 -10 6 0 11 5 11 10 0 6 -2 10 -4 10 -3 0
-8 -4 -11 -10z"/>
<path d="M1144 712 c3 -3 19 -6 36 -7 17 -1 28 1 24 4 -3 3 -19 6 -35 7 -17 1
-28 -1 -25 -4z"/>
<path d="M67 573 c-4 -3 -7 -14 -7 -23 0 -10 -12 -29 -26 -44 -15 -14 -22 -26
-17 -26 14 0 53 35 53 48 0 5 9 8 20 5 14 -4 20 0 20 10 0 8 3 17 8 20 4 2 1
2 -7 0 -7 -2 -19 1 -26 7 -6 5 -15 7 -18 3z"/>
<path d="M1162 571 c-8 -4 -12 -17 -10 -27 2 -15 -2 -18 -19 -17 -13 2 -23 -2
-23 -8 0 -5 5 -7 10 -4 6 3 10 1 10 -4 0 -16 19 -13 36 4 9 9 13 23 9 35 -6
20 9 29 18 10 3 -6 4 -5 3 2 -3 16 -18 20 -34 9z"/>
<path d="M1226 556 c11 -8 15 -18 10 -23 -5 -4 -11 -2 -13 5 -5 13 -23 7 -23
-9 0 -6 5 -7 10 -4 6 3 10 -3 10 -14 0 -21 -15 -29 -22 -12 -1 5 -9 2 -17 -6
-11 -12 -10 -14 5 -11 18 3 19 -8 19 -202 l0 -205 -219 -2 c-187 -2 -216 0
-200 12 11 7 16 16 13 19 -3 3 -15 -3 -27 -14 -20 -19 -42 -26 -42 -15 0 3 11
16 25 29 26 24 33 46 14 46 -5 0 -7 4 -4 10 3 5 13 10 21 10 8 0 13 -3 11 -7
-3 -5 16 -6 41 -4 l47 5 -55 7 c-67 10 -83 5 -75 -20 3 -11 0 -23 -7 -28 -11
-7 -38 -47 -38 -56 0 -12 482 -8 496 4 13 10 29 -3 17 -15 -3 -3 -102 -6 -220
-6 -135 0 -213 -4 -213 -10 0 -5 -7 -10 -15 -10 -8 0 -15 5 -15 10 0 6 -10 10
-21 10 -21 0 -21 0 2 -17 22 -16 46 -18 259 -13 l235 5 2 240 c2 132 3 246 3
253 0 7 4 11 9 8 5 -3 7 -16 4 -29 -5 -17 -3 -19 7 -11 20 20 -12 84 -43 84
-6 0 -2 -6 9 -14z m1 -378 c-1 -57 -3 -11 -3 102 0 113 2 159 3 103 2 -57 2
-149 0 -205z m-124 -145 c-57 -2 -149 -2 -205 0 -57 1 -11 3 102 3 113 0 159
-2 103 -3z"/>
<path d="M30 545 c-7 -9 -10 -18 -7 -21 3 -3 10 4 17 15 13 25 8 27 -10 6z"/>
<path d="M164 528 c4 -13 0 -18 -14 -18 -11 0 -20 -7 -20 -15 0 -9 9 -15 21
-15 20 0 21 -3 14 -82 -4 -46 -4 -80 -1 -77 12 11 16 194 5 209 -9 12 -10 12
-5 -2z"/>
<path d="M62 286 c0 -147 4 -208 12 -215 13 -11 413 -17 424 -7 3 3 -90 6
-206 6 l-212 0 -1 108 c-1 138 -8 305 -13 310 -2 2 -4 -89 -4 -202z"/>
<path d="M1104 476 c-3 -8 -4 -29 -1 -48 3 -30 4 -30 5 9 1 23 8 44 15 46 9 4
9 6 -1 6 -7 1 -15 -5 -18 -13z"/>
<path d="M42 274 c-1 -152 1 -213 10 -222 9 -9 70 -11 223 -10 l210 2 -207 6
c-113 3 -210 9 -215 13 -4 5 -10 102 -13 215 l-6 207 -2 -211z"/>
<path d="M11 414 c0 -11 3 -14 6 -6 3 7 2 16 -1 19 -3 4 -6 -2 -5 -13z"/>
<path d="M10 155 c0 -50 4 -85 10 -85 6 0 10 35 10 85 0 50 -4 85 -10 85 -6 0
-10 -35 -10 -85z"/>
<path d="M168 193 c6 -2 12 -11 12 -19 0 -8 5 -14 10 -14 6 0 10 4 10 8 0 12
-22 32 -34 31 -6 0 -5 -3 2 -6z"/>
<path d="M1100 186 c0 -8 4 -17 9 -21 6 -3 9 4 8 15 -1 23 -17 28 -17 6z"/>
<path d="M215 181 c-3 -5 -1 -12 5 -16 5 -3 10 1 10 9 0 18 -6 21 -15 7z"/>
<path d="M1008 182 c-74 -5 -57 -23 17 -20 36 2 65 6 65 9 0 10 -31 14 -82 11z"/>
<path d="M240 170 c0 -5 18 -10 40 -10 22 0 40 5 40 10 0 6 -18 10 -40 10 -22
0 -40 -4 -40 -10z"/>
<path d="M440 170 l-45 -7 43 -1 c30 -2 42 -6 42 -17 0 -8 7 -15 16 -15 12 0
15 6 11 20 -4 17 -2 20 16 15 17 -5 19 -4 7 4 -16 12 -22 12 -90 1z"/>
<path d="M560 120 c0 -5 -6 -10 -14 -10 -8 0 -17 -14 -21 -30 -4 -17 -13 -30
-21 -30 -8 0 -14 -6 -14 -12 0 -10 -49 -12 -225 -8 -123 3 -221 2 -217 -2 4
-4 111 -8 239 -9 198 -1 235 1 255 15 19 13 20 16 5 16 -10 0 -15 5 -12 11 4
6 14 8 22 5 8 -3 11 -1 8 4 -3 6 -1 10 4 10 6 0 11 5 11 11 0 5 -5 7 -11 3 -8
-4 -9 0 -4 15 3 11 4 21 1 21 -3 0 -6 -4 -6 -10z"/>
<path d="M711 114 c0 -11 3 -14 6 -6 3 7 2 16 -1 19 -3 4 -6 -2 -5 -13z"/>
<path d="M1250 60 c0 -11 2 -20 4 -20 2 0 6 9 9 20 3 11 1 20 -4 20 -5 0 -9
-9 -9 -20z"/>
</g>
</svg>
