<?xml version="1.0" standalone="no"?>
<!DOCTYPE svg PUBLIC "-//W3C//DTD SVG 20010904//EN"
 "http://www.w3.org/TR/2001/REC-SVG-20010904/DTD/svg10.dtd">
<svg version="1.0" xmlns="http://www.w3.org/2000/svg"
 width="512.000000pt" height="512.000000pt" viewBox="0 0 512.000000 512.000000"
 preserveAspectRatio="xMidYMid meet">

<g transform="translate(0.000000,512.000000) scale(0.100000,-0.100000)"
fill="#000000" stroke="none">
<path d="M1100 3485 l0 -475 200 0 200 0 0 275 0 275 305 0 305 0 0 200 0 200
-505 0 -505 0 0 -475z"/>
<path d="M3010 3760 l0 -200 305 0 305 0 0 -275 0 -275 200 0 200 0 0 475 0
475 -505 0 -505 0 0 -200z"/>
<path d="M1100 1635 l0 -475 505 0 505 0 0 200 0 200 -305 0 -305 0 0 275 0
275 -200 0 -200 0 0 -475z"/>
<path d="M3620 1835 l0 -275 -305 0 -305 0 0 -200 0 -200 505 0 505 0 0 475 0
475 -200 0 -200 0 0 -275z"/>
</g>
</svg>
