<?xml version="1.0" standalone="no"?>
<!DOCTYPE svg PUBLIC "-//W3C//DTD SVG 20010904//EN"
 "http://www.w3.org/TR/2001/REC-SVG-20010904/DTD/svg10.dtd">
<svg version="1.0" xmlns="http://www.w3.org/2000/svg"
 width="1600.000000pt" height="1600.000000pt" viewBox="0 0 1600.000000 1600.000000"
 preserveAspectRatio="xMidYMid meet">

<g transform="translate(0.000000,1600.000000) scale(0.100000,-0.100000)"
fill="#000000" stroke="none">
<path d="M1905 14087 c-3 -7 -4 -881 -3 -1942 l3 -1930 26 -55 c37 -79 81
-125 155 -161 56 -28 76 -32 138 -32 51 1 87 7 119 21 65 29 140 103 168 165
l24 52 3 1627 2 1628 1628 2 1627 3 52 24 c62 28 136 103 165 168 14 32 20 68
21 119 1 130 -68 235 -193 293 l-55 26 -1938 3 c-1577 2 -1938 0 -1942 -11z"/>
<path d="M10110 14090 c-70 -12 -115 -35 -169 -85 -69 -64 -95 -128 -96 -230
0 -61 5 -91 22 -127 27 -60 95 -127 158 -159 l50 -24 1627 -3 1628 -2 2 -1623
c3 -1536 4 -1624 21 -1668 37 -96 121 -168 228 -195 138 -36 289 38 356 174
l28 57 0 1945 0 1945 -1905 1 c-1048 1 -1925 -2 -1950 -6z"/>
<path d="M2162 5839 c-58 -11 -137 -56 -174 -98 -17 -19 -43 -60 -57 -91 l-26
-55 0 -1940 0 -1940 1940 0 1940 0 67 33 c76 37 120 83 155 160 34 72 30 192
-7 265 -30 59 -95 121 -158 150 l-47 22 -1627 3 -1628 2 -2 1628 -3 1627 -23
50 c-27 58 -92 129 -142 155 -34 17 -128 41 -153 39 -7 -1 -31 -5 -55 -10z"/>
<path d="M13591 5840 c-86 -18 -160 -69 -207 -143 -56 -87 -54 -15 -54 -1749
l0 -1598 -1627 -2 -1628 -3 -57 -28 c-107 -52 -169 -146 -176 -267 -3 -60 0
-86 18 -132 27 -73 92 -141 168 -176 l57 -27 1940 0 1940 0 0 1945 0 1945 -28
57 c-64 130 -211 205 -346 178z"/>
</g>
</svg>
