<?xml version="1.0" standalone="no"?>
<!DOCTYPE svg PUBLIC "-//W3C//DTD SVG 20010904//EN"
 "http://www.w3.org/TR/2001/REC-SVG-20010904/DTD/svg10.dtd">
<svg version="1.0" xmlns="http://www.w3.org/2000/svg"
 width="260.000000pt" height="260.000000pt" viewBox="0 0 260.000000 260.000000"
 preserveAspectRatio="xMidYMid meet">

<g transform="translate(0.000000,260.000000) scale(0.100000,-0.100000)"
fill="#000000" stroke="none">
<path d="M1179 1849 c-187 -44 -337 -175 -404 -353 l-23 -61 -48 -5 c-26 -3
-49 -10 -51 -16 -5 -14 175 -239 192 -239 17 0 197 225 192 239 -2 6 -27 12
-55 14 l-52 3 26 50 c131 259 505 279 667 37 21 -32 43 -55 50 -52 7 3 33 32
59 65 57 72 57 73 -41 169 -72 71 -159 120 -256 145 -63 16 -197 18 -256 4z"/>
<path d="M1656 1319 c-49 -62 -89 -119 -90 -128 -1 -12 11 -17 51 -21 l53 -5
-23 -44 c-34 -68 -108 -138 -183 -173 -174 -81 -380 -25 -486 132 -20 30 -40
56 -46 58 -5 1 -32 -27 -60 -64 -61 -78 -61 -77 37 -174 117 -115 254 -166
421 -157 226 11 415 149 494 359 l24 63 48 5 c26 3 49 10 51 16 4 13 -173 238
-190 242 -7 1 -52 -48 -101 -109z"/>
</g>
</svg>
